<?xml version="1.0" standalone="no"?>
<!DOCTYPE svg PUBLIC "-//W3C//DTD SVG 20010904//EN"
 "http://www.w3.org/TR/2001/REC-SVG-20010904/DTD/svg10.dtd">
<svg version="1.0" xmlns="http://www.w3.org/2000/svg"
 width="359.000000pt" height="161.000000pt" viewBox="0 0 359.000000 161.000000"
 preserveAspectRatio="xMidYMid meet">

<g transform="translate(0.000000,161.000000) scale(0.100000,-0.100000)"
fill="#014029" stroke="none">
<path d="M2748 1603 c23 -2 59 -2 80 0 20 2 1 4 -43 4 -44 0 -61 -2 -37 -4z"/>
<path d="M65 1558 c-3 -7 -4 -350 -3 -763 l3 -750 499 -3 c360 -1 503 1 512 9
10 8 14 40 14 119 0 60 -3 115 -6 124 -5 14 -46 16 -350 16 l-344 0 0 618 c0
467 -3 621 -12 630 -17 17 -307 17 -313 0z"/>
<path d="M2405 1438 c-3 -7 -4 -323 -3 -703 l3 -690 139 -3 c105 -2 141 1 148
10 4 7 8 35 8 62 l0 50 33 -30 c83 -78 175 -114 294 -114 235 0 414 134 490
365 36 113 39 285 5 395 -61 196 -200 334 -375 372 -28 6 -87 8 -132 5 -103
-7 -173 -38 -253 -112 l-62 -57 -2 229 -3 228 -143 3 c-108 2 -144 0 -147 -10z
m626 -528 c37 0 106 -50 140 -99 84 -125 71 -355 -26 -468 -51 -60 -119 -86
-214 -81 -87 4 -137 25 -187 76 l-33 34 -3 200 -3 200 51 48 c27 26 65 55 84
65 37 19 115 35 145 29 11 -2 32 -4 46 -4z"/>
<path d="M1630 1160 c-122 -9 -312 -77 -327 -116 -6 -17 13 -140 29 -186 13
-37 31 -36 117 7 91 45 157 59 252 52 85 -6 124 -22 162 -67 25 -30 45 -106
34 -133 -4 -11 -42 -15 -154 -20 -243 -9 -368 -49 -456 -146 -56 -63 -77 -123
-77 -216 0 -163 118 -284 308 -317 115 -19 282 23 343 88 31 33 37 30 41 -18
l3 -43 140 0 140 0 3 370 c3 394 0 438 -44 531 -27 57 -100 132 -160 162 -91
47 -203 63 -354 52z m270 -719 l0 -89 -51 -46 c-97 -87 -242 -101 -321 -29
-46 41 -30 143 29 192 46 38 130 56 291 60 l52 1 0 -89z"/>
</g>
</svg>
