<?xml version="1.0" standalone="no"?>
<!DOCTYPE svg PUBLIC "-//W3C//DTD SVG 20010904//EN"
 "http://www.w3.org/TR/2001/REC-SVG-20010904/DTD/svg10.dtd">
<svg version="1.0" xmlns="http://www.w3.org/2000/svg"
 width="303.000000pt" height="175.000000pt" viewBox="0 0 303.000000 175.000000"
 preserveAspectRatio="xMidYMid meet">

<g transform="translate(0.000000,175.000000) scale(0.100000,-0.100000)"
fill="#FFFFFF" stroke="none">
<path d="M162 1723 c-12 -2 -34 -21 -50 -40 l-27 -36 -3 -752 -2 -751 27 -36
c16 -21 40 -39 57 -42 56 -12 2681 -7 2715 5 20 7 37 23 48 47 17 34 18 93 18
783 l0 746 -27 35 c-17 22 -39 38 -59 42 -35 7 -2660 6 -2697 -1z m826 -281
c98 -36 174 -110 203 -196 11 -32 19 -73 17 -90 l-3 -31 -110 -3 -110 -2 -29
47 c-49 82 -76 97 -181 101 l-90 4 -42 -37 c-72 -62 -66 -139 15 -188 36 -22
152 -63 222 -78 66 -14 185 -61 228 -91 23 -16 60 -52 82 -79 32 -41 39 -59
45 -114 12 -107 -1 -182 -40 -241 -31 -48 -111 -124 -130 -124 -4 0 -33 -12
-64 -27 -54 -27 -61 -28 -226 -28 l-170 0 -75 36 c-86 42 -127 74 -167 131
-29 42 -52 112 -53 161 l0 27 119 0 120 0 15 -32 c9 -17 16 -36 16 -42 0 -7
18 -26 41 -43 46 -36 132 -51 216 -38 57 8 77 18 114 56 24 25 29 38 29 79 0
43 -4 54 -31 77 -29 27 -202 93 -241 93 -16 0 -100 29 -190 67 -21 9 -38 20
-38 25 0 4 -6 8 -13 8 -21 0 -82 71 -108 125 -35 74 -34 190 3 265 26 55 121
160 144 160 7 0 29 10 49 21 80 47 309 48 433 1z m1496 4 c29 -14 57 -26 63
-26 13 0 123 -105 123 -117 0 -6 8 -25 17 -44 10 -19 17 -56 18 -84 l0 -50
-112 -3 -112 -3 -19 44 c-11 24 -38 58 -62 77 -40 32 -46 33 -130 34 -80 0
-90 -2 -123 -27 -70 -53 -72 -140 -3 -192 28 -21 204 -85 237 -85 25 -1 183
-65 225 -92 88 -57 135 -147 134 -261 -2 -150 -77 -252 -237 -320 -75 -32
-225 -44 -344 -29 -182 23 -332 152 -341 292 l-3 55 114 3 c120 3 141 -3 141
-42 0 -23 47 -73 90 -96 31 -17 197 -19 226 -3 11 7 35 24 52 40 29 25 32 32
31 88 0 90 3 88 -339 196 -120 38 -172 65 -216 111 -80 84 -103 237 -52 348
45 99 166 194 268 211 25 4 102 6 173 4 113 -2 133 -6 181 -29z m-835 10 c8
-9 10 -174 9 -597 l-3 -584 -130 0 -130 0 -3 584 c-1 423 1 588 9 597 8 10 41
14 124 14 83 0 116 -4 124 -14z"/>
</g>
</svg>
