<?xml version="1.0" encoding="UTF-8"?>
<svg version="1.1" xmlns="http://www.w3.org/2000/svg" width="50px" height="50px" viewBox="0 0 50 50">
<path d="M0 0 C15.84 0 31.68 0 48 0 C48 15.84 48 31.68 48 48 C32.16 48 16.32 48 0 48 C0 32.16 0 16.32 0 0 Z " fill="#F4B25E" transform="translate(0,0)"/>
<path d="M0 0 C-0.33 1.98 -0.66 3.96 -1 6 C-2.134375 6.268125 -3.26875 6.53625 -4.4375 6.8125 C-6.2009375 7.4003125 -6.2009375 7.4003125 -8 8 C-8.33 8.99 -8.66 9.98 -9 11 C-7.02 11 -5.04 11 -3 11 C-3 12.65 -3 14.3 -3 16 C-5.31 16 -7.62 16 -10 16 C-10.99 21.94 -11.98 27.88 -13 34 C-15.31 34 -17.62 34 -20 34 C-19.48517081 28.147205 -18.54642808 22.6702363 -17 17 C-17.99 17 -18.98 17 -20 17 C-20 15.35 -20 13.7 -20 12 C-18.35 11.67 -16.7 11.34 -15 11 C-14.9175 9.9275 -14.835 8.855 -14.75 7.75 C-14 4 -14 4 -12.5625 1.5625 C-8.570564 -0.87160732 -4.55830485 -0.31316598 0 0 Z " fill="#28241E" transform="translate(28,7)"/>
<path d="M0 0 C1.32 0 2.64 0 4 0 C6.23298033 5.33434191 6.23298033 5.33434191 5.125 8.5 C4.568125 9.7375 4.568125 9.7375 4 11 C3.83242243 14.20870233 3.83242243 14.20870233 4 17 C3.34 17.33 2.68 17.66 2 18 C2.33 18.99 2.66 19.98 3 21 C1.35 21 -0.3 21 -2 21 C-2 21.66 -2 22.32 -2 23 C-2.66 23 -3.32 23 -4 23 C-3.125 15.375 -3.125 15.375 -2 12 C-1.34 12 -0.68 12 0 12 C0 11.34 0 10.68 0 10 C-0.66 10 -1.32 10 -2 10 C-2 9.34 -2 8.68 -2 8 C-1.34 7.67 -0.68 7.34 0 7 C0 5.68 0 4.36 0 3 C0 2.01 0 1.02 0 0 Z " fill="#2A2012" transform="translate(30,18)"/>
<path d="M0 0 C2.4375 0.1875 2.4375 0.1875 3.4375 1.1875 C3.625 3.625 3.625 3.625 3.4375 6.1875 C2.7775 6.8475 2.1175 7.5075 1.4375 8.1875 C-1.1875 7.8125 -1.1875 7.8125 -3.5625 7.1875 C-4.1875 4.8125 -4.1875 4.8125 -4.5625 2.1875 C-2.5625 0.1875 -2.5625 0.1875 0 0 Z " fill="#403931" transform="translate(35.5625,6.8125)"/>
<path d="M0 0 C1.32 0 2.64 0 4 0 C6.05519054 5.31931669 6.05519054 5.31931669 5.8125 8.3125 C5.4103125 9.1478125 5.4103125 9.1478125 5 10 C4.01 10.33 3.02 10.66 2 11 C2 10.34 2 9.68 2 9 C0.68 9.33 -0.64 9.66 -2 10 C-2 9.34 -2 8.68 -2 8 C-1.34 7.67 -0.68 7.34 0 7 C0 5.68 0 4.36 0 3 C0 2.01 0 1.02 0 0 Z " fill="#31281E" transform="translate(30,18)"/>
<path d="M0 0 C0.99 0 1.98 0 3 0 C3 0.66 3 1.32 3 2 C3.66 2 4.32 2 5 2 C5 2.66 5 3.32 5 4 C4.34 4 3.68 4 3 4 C3 4.66 3 5.32 3 6 C1.68 5.67 0.36 5.34 -1 5 C-1 4.34 -1 3.68 -1 3 C-0.34 3 0.32 3 1 3 C0.67 2.01 0.34 1.02 0 0 Z " fill="#151310" transform="translate(29,27)"/>
<path d="M0 0 C1.32 0 2.64 0 4 0 C4 0.99 4 1.98 4 3 C3.34 3 2.68 3 2 3 C2 3.66 2 4.32 2 5 C1.01 5.33 0.02 5.66 -1 6 C-0.67 4.02 -0.34 2.04 0 0 Z " fill="#604B32" transform="translate(30,18)"/>
</svg>
